<svg width="300" height="94" viewBox="0 0 300 94" xmlns="http://www.w3.org/2000/svg"><g fill="none" class="nc-icon-wrapper"><path d="M290.305 73.0599C288.286 76.2057 285.48 78.6633 281.887 80.4328C278.795 78.7884 276.418 76.9832 274.755 75.0171C272.128 71.8534 270.537 67.1526 269.983 60.9147C269.804 58.7699 269.715 56.7233 269.715 54.7751C269.715 52.8269 269.67 51.4864 269.581 50.7535C269.492 50.0207 269.313 49.4577 269.045 49.0645C268.794 48.6534 268.428 48.3763 267.945 48.2333C267.481 48.0725 266.855 47.9563 266.069 47.8848V45.5791H279.581V47.8848L278.911 47.9652C278.107 48.0725 277.463 48.1887 276.981 48.3138C276.516 48.421 276.158 48.6355 275.908 48.9572C275.515 49.4934 275.318 50.8876 275.318 53.1397V56.2497C275.318 58.9844 275.372 61.3526 275.479 63.3545C275.604 65.3563 275.899 67.1348 276.364 68.6898C277.24 71.6568 279.161 74.3111 282.128 76.6525C287.615 73.2744 290.359 68.5468 290.359 62.4697V53.4078C290.359 50.9948 290.189 49.5739 289.85 49.1449C289.528 48.7159 289.126 48.4389 288.643 48.3138C288.178 48.1887 287.544 48.0725 286.74 47.9652L286.096 47.8848V45.5791H299.582V47.858L299.528 47.8848C297.955 48.0278 296.99 48.3585 296.633 48.8768C296.079 49.6811 295.802 51.2629 295.802 53.6223V65.6066C295.802 73.5961 294.667 79.7625 292.397 84.1058C289.644 89.3965 284.765 92.5958 277.758 93.704L277.195 90.8889C281.485 89.8344 284.648 87.8861 286.686 85.0442C288.67 82.2917 289.876 78.2969 290.305 73.0599Z" fill="#000"/><path d="M257.512 74.9099C255.188 77.3765 252.391 78.6098 249.12 78.6098C244.616 78.6098 241.104 76.9386 238.584 73.5962C236.332 70.6113 235.206 66.8131 235.206 62.2017C235.206 57.5009 236.448 53.5508 238.932 50.3515C241.685 46.8125 245.581 45.043 250.622 45.043C252.052 45.043 253.544 45.0966 255.099 45.2038C258.066 45.4362 259.916 45.5524 260.649 45.5524H267.593V47.8313C265.555 47.9743 264.322 48.2692 263.893 48.716C263.464 49.145 263.205 49.6365 263.115 50.1906C263.026 50.7268 262.981 51.4239 262.981 52.2818V76.599C262.981 81.2461 261.703 85.1873 259.147 88.4224C256.377 91.9435 252.65 93.7041 247.968 93.7041C245.626 93.7041 243.365 93.1679 241.184 92.0955L242.23 89.1999C243.767 89.8076 245.492 90.1115 247.404 90.1115C249.317 90.1115 250.926 89.7183 252.23 88.9318C253.553 88.1632 254.608 87.1534 255.394 85.9022C256.806 83.5965 257.512 80.5133 257.512 76.6526V74.9099ZM241.292 62.2017C241.292 71.1564 243.973 75.6338 249.335 75.6338C251.658 75.6338 253.607 74.8831 255.18 73.3817C256.735 71.8982 257.512 70.1108 257.512 68.0196V53.4079C257.512 51.6026 257.217 50.3872 256.627 49.7616C255.483 48.5462 253.446 47.9385 250.515 47.9385C244.366 47.9385 241.292 52.6929 241.292 62.2017Z" fill="#000"/><path d="M203.619 61.6119C203.619 60.2177 203.753 58.8325 204.021 57.4562C204.307 56.08 204.727 54.7752 205.281 53.5419C205.853 52.3086 206.559 51.1736 207.399 50.137C208.239 49.1003 209.213 48.2066 210.321 47.4559C212.698 45.8473 215.46 45.043 218.606 45.043C223.36 45.043 227.114 46.741 229.866 50.137C232.386 53.247 233.646 57.0809 233.646 61.6387C233.646 66.2322 232.386 70.1376 229.866 73.3549C227.114 76.8581 223.36 78.6098 218.606 78.6098C213.869 78.6098 210.116 76.8313 207.345 73.2745C204.861 70.0572 203.619 66.1697 203.619 61.6119ZM215.469 75.044C216.38 75.4372 217.435 75.6338 218.632 75.6338C219.848 75.6338 220.911 75.4461 221.823 75.0708C222.734 74.6775 223.521 74.1413 224.182 73.4621C224.844 72.7829 225.389 71.9965 225.818 71.1028C226.265 70.1912 226.622 69.2171 226.89 68.1805C227.373 66.3216 227.614 64.4895 227.614 62.6843C227.614 60.8612 227.56 59.3955 227.453 58.2874C227.346 57.1613 227.158 56.0978 226.89 55.0969C226.622 54.0781 226.265 53.1308 225.818 52.255C225.389 51.3792 224.844 50.6196 224.182 49.9761C222.752 48.6177 220.911 47.9385 218.659 47.9385C214.423 47.9385 211.689 50.3693 210.455 55.231C209.973 57.072 209.731 59.2079 209.731 61.6387C209.731 68.9312 211.644 73.3996 215.469 75.044Z" fill="#000"/><path d="M188.761 75.741L189.699 75.6069C190.468 75.4997 191.094 75.3925 191.576 75.2852C192.059 75.1601 192.434 74.9456 192.702 74.6418C193.167 74.0877 193.399 72.8276 193.399 70.8615V38.6084C193.399 36.5708 193.185 35.3554 192.756 34.9622C192.327 34.5511 191.809 34.2919 191.201 34.1847C190.593 34.0596 189.78 33.9523 188.761 33.8629V31.584H198.815V70.8615C198.815 72.7203 199.119 73.9447 199.727 74.5345C200.173 74.9814 201.246 75.321 202.944 75.5533L204.231 75.741V77.9663H188.761V75.741Z" fill="#000"/><path d="M157.442 61.6119C157.442 60.2177 157.576 58.8325 157.844 57.4562C158.13 56.08 158.55 54.7752 159.104 53.5419C159.676 52.3086 160.382 51.1736 161.222 50.137C162.062 49.1003 163.036 48.2066 164.145 47.4559C166.522 45.8473 169.283 45.043 172.429 45.043C177.184 45.043 180.937 46.741 183.69 50.137C186.21 53.247 187.47 57.0809 187.47 61.6387C187.47 66.2322 186.21 70.1376 183.69 73.3549C180.937 76.8581 177.184 78.6098 172.429 78.6098C167.693 78.6098 163.939 76.8313 161.169 73.2745C158.684 70.0572 157.442 66.1697 157.442 61.6119ZM169.292 75.044C170.204 75.4372 171.258 75.6338 172.456 75.6338C173.671 75.6338 174.735 75.4461 175.646 75.0708C176.558 74.6775 177.344 74.1413 178.006 73.4621C178.667 72.7829 179.212 71.9965 179.641 71.1028C180.088 70.1912 180.445 69.2171 180.714 68.1805C181.196 66.3216 181.437 64.4895 181.437 62.6843C181.437 60.8612 181.384 59.3955 181.277 58.2874C181.169 57.1613 180.982 56.0978 180.714 55.0969C180.445 54.0781 180.088 53.1308 179.641 52.255C179.212 51.3792 178.667 50.6196 178.006 49.9761C176.576 48.6177 174.735 47.9385 172.483 47.9385C168.247 47.9385 165.512 50.3693 164.279 55.231C163.796 57.072 163.555 59.2079 163.555 61.6387C163.555 68.9312 165.467 73.3996 169.292 75.044Z" fill="#000"/><path d="M147.062 47.0001C144.292 38.7782 138.742 33.7468 130.413 31.9058L130.976 29.5464C139.18 30.7619 145.355 34.2294 149.502 39.9489C153.22 45.0966 155.079 51.4864 155.079 59.1185C155.079 65.124 153.711 69.8784 150.977 73.3817C148.242 76.867 144.578 78.6097 139.984 78.6097C135.587 78.6097 131.995 76.8402 129.206 73.3012C126.615 70.0482 125.319 66.1875 125.319 61.7191C125.319 57.197 126.525 53.3274 128.938 50.1101C131.602 46.5711 135.23 44.8016 139.823 44.8016C142.665 44.8016 145.078 45.5345 147.062 47.0001ZM148.966 59.7887C148.966 51.7277 146.088 47.6972 140.333 47.6972C137.098 47.6972 134.747 49.1539 133.282 52.0673C132.066 54.4266 131.459 57.6707 131.459 61.7995C131.459 67.9123 132.942 72.1037 135.909 74.3737C137.017 75.2137 138.447 75.6338 140.199 75.6338C141.968 75.6338 143.434 75.2316 144.596 74.4273C145.757 73.623 146.66 72.5148 147.304 71.1028C148.412 68.6541 148.966 64.8827 148.966 59.7887Z" fill="#FF5C51"/><path d="M101.909 50.5659C101.605 51.12 101.453 51.7634 101.453 52.4962C101.453 53.2112 101.793 54.0781 102.472 55.0969L100.649 56.1961C98.5397 55.8386 97.0115 54.9539 96.0642 53.5418C95.7246 53.0593 95.5548 52.4337 95.5548 51.6651C95.5548 50.8965 95.8676 50.1012 96.4932 49.279C97.1188 48.4389 97.9946 47.7061 99.1206 47.0805C101.587 45.7221 104.697 45.0429 108.451 45.0429C114.563 45.0429 118.362 46.8124 119.845 50.3514C120.31 51.4596 120.542 52.6839 120.542 54.0244V70.8346C120.542 72.908 120.739 74.1591 121.132 74.5881C121.525 74.9992 121.999 75.2673 122.553 75.3924C123.125 75.5175 123.885 75.6248 124.832 75.7142V77.9662H118.183C116.86 77.9662 115.35 78.0377 113.652 78.1807C110.167 78.5025 107.486 78.6633 105.609 78.6633C103.732 78.6633 102.079 78.4131 100.649 77.9126C99.2189 77.4122 98.0482 76.7508 97.1366 75.9286C95.3671 74.3379 94.4824 72.3092 94.4824 69.8427C94.4824 67.1795 96.0285 64.7218 99.1206 62.4698C102.838 59.7172 108.174 58.2694 115.127 58.1264V53.4346C115.127 49.7169 112.651 47.858 107.7 47.858C104.876 47.858 102.946 48.7606 101.909 50.5659ZM115.127 60.9147H115.18L115.127 60.8879V60.9147ZM115.127 60.9147C105.457 61.4867 100.622 64.4627 100.622 69.8427C100.622 72.6846 102.061 74.5166 104.939 75.3388C105.832 75.6069 106.949 75.741 108.29 75.741C109.63 75.741 110.765 75.6695 111.695 75.5265C112.642 75.3656 113.366 75.0886 113.866 74.6954C114.385 74.3021 114.724 73.7659 114.885 73.0867C115.046 72.3897 115.127 71.496 115.127 70.4057V60.9147Z" fill="#FF5C51"/><path d="M90.9125 73.9715C88.4638 76.9921 84.7907 78.5025 79.8933 78.5025C75.1747 78.5025 71.4838 76.9743 68.8206 73.9179C66.2646 70.9687 64.9867 67.0722 64.9867 62.2285C64.9867 57.2417 66.4076 53.1218 69.2495 49.8688C72.0736 46.6515 75.693 45.0429 80.1078 45.0429C83.4859 45.0429 86.1223 45.7579 88.0169 47.1878C89.8222 48.5283 90.7248 50.3693 90.7248 52.7107C90.7248 55.7314 89.2591 58.2784 86.3279 60.3517C82.914 62.7647 77.7485 63.998 70.8314 64.0516C71.4569 71.3619 74.7636 75.0171 80.7513 75.0171C84.5047 75.0171 87.3824 74.1591 89.3843 72.4433L90.9125 73.9715ZM70.7509 61.1828C77.114 61.0577 81.4215 59.5474 83.6736 56.6519C84.4958 55.5794 84.9069 54.2479 84.9069 52.6571C84.9069 50.5838 84.0132 49.1539 82.2258 48.3674C81.5288 48.0636 80.6619 47.9116 79.6252 47.9116C78.5885 47.9116 77.668 48.0993 76.8637 48.4747C76.0594 48.8321 75.3355 49.3326 74.6921 49.976C74.0486 50.6016 73.4856 51.3434 73.003 52.2013C72.5204 53.0414 72.1183 53.9529 71.7965 54.936C71.1352 56.9557 70.7867 59.038 70.7509 61.1828Z" fill="#FF5C51"/><path d="M57.0463 55.3113C58.0473 54.3462 58.5477 52.8805 58.5477 50.9144C58.5477 49.9492 58.092 49.1896 57.1804 48.6355C56.4118 48.1887 55.2411 47.9653 53.6682 47.9653C50.2722 47.9653 48.5742 49.0734 48.5742 51.2898V71.6658C48.5742 72.4343 48.6457 73.0689 48.7887 73.5693C48.9496 74.0698 49.2981 74.4719 49.8343 74.7758C50.7637 75.312 52.9086 75.6337 56.2688 75.741V77.9662H38.3594V75.7678L38.413 75.741C40.5221 75.5265 41.7822 75.2316 42.1933 74.8562C42.6223 74.463 42.8814 74.0162 42.9708 73.5157C43.0781 72.9974 43.1317 72.3092 43.1317 71.4513V52.8716C43.1317 50.9234 42.9351 49.7169 42.5418 49.2522C42.1665 48.7874 41.7018 48.4657 41.1477 48.287C40.5936 48.1082 39.8608 47.9653 38.9492 47.858V45.5791H44.499C46.6975 45.5791 48.2614 45.5344 49.1909 45.4451C50.1203 45.3557 50.8531 45.2931 51.3893 45.2574C52.998 45.1144 54.3027 45.0429 55.3037 45.0429C56.3225 45.0429 57.3681 45.1233 58.4405 45.2842C59.5129 45.4451 60.4602 45.7221 61.2824 46.1153C63.0877 46.9733 63.9903 48.3049 63.9903 50.1101C63.9903 51.5579 63.4004 52.9073 62.2208 54.1585C61.1126 55.3382 59.8793 56.1157 58.5209 56.491L57.0463 55.3113Z" fill="#FF5C51"/><path d="M0.418091 75.741C2.47357 75.5622 3.71579 75.2584 4.14476 74.8294C4.57372 74.3826 4.83289 73.9 4.92226 73.3816C5.01163 72.8454 5.05631 72.1483 5.05631 71.2904V43.6219C5.05631 41.9061 4.85077 40.8515 4.43967 40.4583C4.04645 40.0472 3.53705 39.7702 2.91147 39.6272C2.30377 39.4842 1.47264 39.368 0.418091 39.2786V36.9461H7.38883C8.56849 36.9461 9.89115 36.8836 11.3568 36.7584C14.0557 36.5261 16.424 36.4099 18.4616 36.4099C20.5171 36.4099 22.51 36.6244 24.4403 37.0534C26.3707 37.4823 27.9525 38.09 29.1858 38.8765C31.5809 40.3957 32.7784 42.5763 32.7784 45.4183C32.7784 49.0645 31.4021 51.9421 28.6496 54.0512C27.738 54.7483 26.6567 55.3113 25.4055 55.7403C30.7319 56.634 34.11 58.7967 35.5399 62.2285C35.9867 63.3009 36.2102 64.5788 36.2102 66.0624C36.2102 67.528 35.8706 69.0562 35.1914 70.647C34.53 72.2198 33.4934 73.6051 32.0813 74.8026C28.9892 77.4479 24.6101 78.7706 18.9442 78.7706C17.5321 78.7706 15.9771 78.6812 14.2791 78.5024C11.1512 78.145 8.85447 77.9662 7.38883 77.9662H0.418091V75.741ZM10.4989 70.1376C10.4989 71.9249 10.9368 73.2118 11.8126 73.9983C13.0637 75.1064 15.4767 75.6605 19.0514 75.6605C23.1266 75.6605 26.0758 74.749 27.8989 72.9259C29.4003 71.4245 30.151 69.369 30.151 66.7594C30.151 62.9523 28.7121 60.2713 25.8345 58.7163C24.7621 58.1264 23.6896 57.7958 22.6172 57.7243C21.5448 57.6349 20.7137 57.5724 20.1238 57.5366L18.3007 57.4294C17.6751 57.3936 17.0585 57.3668 16.4508 57.3489C15.861 57.3132 15.2979 57.2774 14.7617 57.2417V54.7215L20.3115 54.373C22.653 54.1406 24.3688 53.1218 25.4591 51.3166C26.2992 49.9403 26.7192 48.144 26.7192 45.9277C26.7192 43.8186 26.1294 42.2367 24.9497 41.1822C23.5198 39.9132 21.0711 39.2786 17.6036 39.2786C13.4212 39.2786 11.1155 40.3957 10.6865 42.63C10.5614 43.2913 10.4989 44.0062 10.4989 44.7748V70.1376Z" fill="#FF5C51"/><path d="M102.912 29.6143C102.048 29.1996 101.298 28.7437 100.764 28.3928C100.28 28.0745 99.8227 27.7256 99.3656 27.3706C99.6037 26.9541 99.8392 26.5394 100.109 26.1423C100.371 25.7569 100.755 25.2303 101.248 24.6604C102.224 23.5325 103.673 22.1788 105.491 21.4594C107.195 20.785 109.065 20.7863 110.659 21.0069C112.262 21.2287 113.655 21.6819 114.445 21.9766C115.241 22.2735 115.623 23.1761 115.25 23.9573C114.559 25.4037 112.566 28.9477 108.91 30.3947C107.897 30.7954 106.805 30.7901 105.788 30.6007C104.768 30.4111 103.772 30.0276 102.912 29.6143Z" fill="#FF5C51"/><path fill-rule="evenodd" clip-rule="evenodd" d="M99.8136 9.06469C100.171 8.81761 100.525 8.5703 100.9 8.3534C101.258 8.14651 101.764 7.87728 102.362 7.62694C103.536 7.13509 105.156 6.67618 106.706 7.0142C108.577 7.42218 110.049 8.82236 110.697 9.52776C111.178 10.0507 111.139 10.8678 110.634 11.3537C110.179 11.7919 109.386 12.494 108.458 13.0392C107.506 13.5986 106.352 14.0366 105.255 13.7772C103.54 13.3716 102.252 12.3178 101.406 11.3971C100.981 10.934 100.659 10.4955 100.443 10.171C100.207 9.8176 100.012 9.44206 99.8136 9.06469Z" fill="#FF5C51"/><path d="M120.065 15.4669C118.655 16.5961 116.78 16.9807 115.337 17.1024C114.604 17.1643 113.954 17.1604 113.487 17.1411C113.016 17.1216 112.551 17.065 112.084 17.0077L112.085 16.9786C112.106 16.5297 112.127 16.0845 112.193 15.6395C112.258 15.2008 112.376 14.5932 112.585 13.9113C113 12.5584 113.798 10.8505 115.334 9.62126C116.001 9.08759 116.822 8.84162 117.621 8.74774C118.424 8.65358 119.252 8.70678 119.985 8.81173C120.722 8.91711 121.384 9.07798 121.861 9.2118C122.318 9.34004 122.761 9.50001 123.207 9.66281C123.127 10.0487 123.05 10.4333 122.939 10.8116C122.839 11.1518 122.683 11.6222 122.455 12.1495C122.006 13.1922 121.256 14.5149 120.065 15.4669Z" fill="#FF5C51"/><path fill-rule="evenodd" clip-rule="evenodd" d="M121.593 18.312C120.649 19.633 120.53 21.3465 120.661 22.8089C120.794 24.2946 121.2 25.6734 121.465 26.4531C121.732 27.2384 122.589 27.6471 123.371 27.339C124.573 26.8655 127.222 25.6342 128.837 23.373C130.133 21.5579 130.523 19.2597 130.611 17.4921C130.656 16.5966 130.624 15.8096 130.581 15.2455C130.538 14.6821 130.451 14.1276 130.362 13.5698C129.083 13.7506 127.855 14.0387 126.653 14.5243C125.03 15.1803 123.006 16.3331 121.593 18.312Z" fill="#FF5C51"/><path fill-rule="evenodd" clip-rule="evenodd" d="M112.276 4.00936L112.15 4.56318C109.168 18.1365 116.073 26.3001 129.51 29.2519C130.322 29.4303 130.98 29.548 130.98 29.548L130.414 31.9082L129.195 31.6317C114.377 28.3765 107.789 18.6678 111.014 3.98677L111.262 2.85828L112.276 4.00936Z" fill="#FF5C51"/></g></svg>