<svg xmlns="http://www.w3.org/2000/svg" viewBox="0 0 48 48"><g class="nc-icon-wrapper"><line data-cap="butt" data-color="color-2" fill="none" stroke="#444444" stroke-width="2" stroke-miterlimit="10" x1="22" y1="18" x2="22" y2="32" stroke-linejoin="miter" stroke-linecap="butt"></line> <line data-cap="butt" data-color="color-2" fill="none" stroke="#444444" stroke-width="2" stroke-miterlimit="10" x1="30" y1="18" x2="30" y2="34" stroke-linejoin="miter" stroke-linecap="butt"></line> <path data-color="color-2" fill="none" stroke="#444444" stroke-width="2" stroke-linecap="square" stroke-miterlimit="10" d="M14,6 c0-2.2,1.8000002-4,4-4c6,0,8,8,8,8s-5.7999992,0-8,0S14,8.1999998,14,6z" stroke-linejoin="miter"></path> <path data-color="color-2" fill="none" stroke="#444444" stroke-width="2" stroke-linecap="square" stroke-miterlimit="10" d="M38,6 c0-2.2-1.7999992-4-4-4c-6,0-8,8-8,8s5.7999992,0,8,0S38,8.1999998,38,6z" stroke-linejoin="miter"></path> <polyline data-cap="butt" fill="none" stroke="#444444" stroke-width="2" stroke-miterlimit="10" points="42,18 42,34 36,34 " stroke-linejoin="miter" stroke-linecap="butt"></polyline> <line data-cap="butt" fill="none" stroke="#444444" stroke-width="2" stroke-miterlimit="10" x1="10" y1="28" x2="10" y2="18" stroke-linejoin="miter" stroke-linecap="butt"></line> <rect x="6" y="10" fill="none" stroke="#444444" stroke-width="2" stroke-linecap="square" stroke-miterlimit="10" width="40" height="8" stroke-linejoin="miter"></rect> <path data-cap="butt" fill="none" stroke="#444444" stroke-width="2" stroke-miterlimit="10" d="M28.2000008,34H38 c4.7999992,0,6,4,6,4l-21.2000008,7.5999985C21.1999989,46,19.3999996,46,17.7999992,45.3999977L2,38.8125V28h8 c3.1999998,0,6.2000008,1.3999996,8,4h6c3,0,6,3,6,6H16" stroke-linejoin="miter" stroke-linecap="butt"></path></g></svg>